<svg version="1.1" id="Layer_1" xmlns="http://www.w3.org/2000/svg" xmlns:xlink="http://www.w3.org/1999/xlink" x="0px" y="0px"
	 width="100%" viewBox="0 0 225 225" enable-background="new 0 0 225 225" xml:space="preserve">
<path fill="#A21229" opacity="1.000000" stroke="none" 
	d="
M1.000000,88.000000 
	C1.000000,58.666672 1.000000,29.833344 1.000000,1.000012 
	C75.999977,1.000008 150.999954,1.000008 225.999954,1.000004 
	C225.999969,75.999969 225.999969,150.999939 225.999985,225.999939 
	C151.000046,225.999954 76.000092,225.999954 1.000068,225.999969 
	C1.000000,180.166672 1.000000,134.333328 1.000000,88.000000 
M124.757179,174.577576 
	C126.512093,174.399948 128.302490,173.907913 130.015518,174.101318 
	C136.115494,174.790039 142.178040,175.813232 148.279572,176.483887 
	C150.109314,176.685013 152.678864,176.852417 153.775940,175.824921 
	C157.812729,172.044189 161.373642,167.755325 165.721176,162.991913 
	C129.953903,153.202591 95.351257,152.891785 59.889027,162.985123 
	C64.367920,168.200760 68.175385,172.753342 72.162880,177.142349 
	C72.723404,177.759293 74.227272,177.895782 75.187668,177.708099 
	C79.491501,176.866989 83.715790,175.524918 88.046631,174.940735 
	C92.979904,174.275314 97.995804,174.222397 103.668800,174.349258 
	C110.458107,174.560013 117.247421,174.770752 124.757179,174.577576 
M102.226730,87.425842 
	C76.488655,89.082855 51.946468,95.122322 28.558702,106.992340 
	C30.479776,111.746567 32.188522,115.975327 34.065250,120.619797 
	C86.938866,100.288986 139.386475,99.833817 191.892548,121.022621 
	C193.875320,116.167366 195.603363,111.935844 197.478134,107.345070 
	C182.594406,100.116188 167.722641,94.358612 151.966141,91.330772 
	C142.075958,89.430237 132.007324,88.458382 121.382408,86.528717 
	C115.249443,86.706711 109.116478,86.884705 102.226730,87.425842 
M178.118713,30.390799 
	C149.385773,19.748619 119.753593,16.530430 89.413033,20.126780 
	C65.057808,23.013672 42.152985,30.603746 20.787600,42.691265 
	C19.648527,43.335697 18.220402,44.676865 18.143566,45.778549 
	C17.838913,50.146641 18.018311,54.548496 18.018311,59.992092 
	C48.757637,44.729588 79.920326,37.325768 112.575073,37.215569 
	C145.936737,37.102985 177.597336,45.056519 207.787140,60.437744 
	C208.163910,56.628963 208.301254,53.485794 208.823273,50.407864 
	C209.475266,46.563576 208.190613,44.237804 204.544998,42.636662 
	C195.894989,38.837616 187.377502,34.736855 178.118713,30.390799 
M23.071913,75.734978 
	C22.426754,76.583870 21.124952,77.541672 21.244713,78.263687 
	C21.938686,82.447495 22.967571,86.575745 23.906803,90.829987 
	C83.783020,64.527863 143.012161,64.383919 202.160263,91.449806 
	C202.846497,89.131737 203.356049,87.569191 203.766129,85.980949 
	C204.180649,84.375404 204.962463,82.675003 204.734177,81.142685 
	C204.467499,79.352745 203.752335,76.843239 202.425064,76.113815 
	C175.895981,61.534420 147.371841,53.991142 117.168137,53.222023 
	C84.132317,52.380791 52.964115,59.937332 23.071913,75.734978 
M44.944626,141.550980 
	C46.525944,144.038330 48.107262,146.525665 49.502937,148.721008 
	C60.923843,146.215073 71.750610,143.457840 82.727943,141.581421 
	C88.813225,140.541245 95.154762,141.057419 101.372322,140.717178 
	C107.080009,140.404861 112.771225,139.752533 118.480591,139.532288 
	C120.326477,139.461075 122.191063,140.531921 124.074364,140.651749 
	C130.111328,141.035843 136.272949,140.582275 142.181274,141.620148 
	C152.684891,143.465271 163.025894,146.224701 173.471924,148.426041 
	C174.584244,148.660446 176.491745,148.114853 177.091812,147.266907 
	C179.647110,143.656052 181.849258,139.795258 184.510818,135.491241 
	C136.477875,116.843933 89.230858,116.576714 41.378906,135.141602 
	C42.651592,137.466537 43.598606,139.196548 44.944626,141.550980 
M103.354141,202.141922 
	C109.015732,207.537262 114.625847,207.669434 120.621254,202.450546 
	C123.471657,199.969299 126.937988,198.205750 130.054260,196.015976 
	C131.930267,194.697708 133.669571,193.184891 135.470306,191.759506 
	C135.301941,191.316620 135.133560,190.873734 134.965195,190.430847 
	C119.863579,190.430847 104.761955,190.430847 89.660339,190.430847 
	C89.511559,190.965897 89.362778,191.500946 89.214005,192.035995 
	C93.716103,195.288345 98.218208,198.540680 103.354141,202.141922 
M126.492264,86.519768 
	C126.492264,86.519768 126.468170,86.470116 126.492264,86.519768 
z"/>
<path fill="#FDFBFB" opacity="1.000000" stroke="none" 
	d="
M178.462585,30.574413 
	C187.377502,34.736855 195.894989,38.837616 204.544998,42.636662 
	C208.190613,44.237804 209.475266,46.563576 208.823273,50.407864 
	C208.301254,53.485794 208.163910,56.628963 207.787140,60.437744 
	C177.597336,45.056519 145.936737,37.102985 112.575073,37.215569 
	C79.920326,37.325768 48.757637,44.729588 18.018311,59.992092 
	C18.018311,54.548496 17.838913,50.146641 18.143566,45.778549 
	C18.220402,44.676865 19.648527,43.335697 20.787600,42.691265 
	C42.152985,30.603746 65.057808,23.013672 89.413033,20.126780 
	C119.753593,16.530430 149.385773,19.748619 178.462585,30.574413 
z"/>
<path fill="#FDFBFB" opacity="1.000000" stroke="none" 
	d="
M23.383579,75.514481 
	C52.964115,59.937332 84.132317,52.380791 117.168137,53.222023 
	C147.371841,53.991142 175.895981,61.534420 202.425064,76.113815 
	C203.752335,76.843239 204.467499,79.352745 204.734177,81.142685 
	C204.962463,82.675003 204.180649,84.375404 203.766129,85.980949 
	C203.356049,87.569191 202.846497,89.131737 202.160263,91.449806 
	C143.012161,64.383919 83.783020,64.527863 23.906803,90.829987 
	C22.967571,86.575745 21.938686,82.447495 21.244713,78.263687 
	C21.124952,77.541672 22.426754,76.583870 23.383579,75.514481 
z"/>
<path fill="#FDFBFB" opacity="1.000000" stroke="none" 
	d="
M122.018745,87.069870 
	C132.007324,88.458382 142.075958,89.430237 151.966141,91.330772 
	C167.722641,94.358612 182.594406,100.116188 197.478134,107.345070 
	C195.603363,111.935844 193.875320,116.167366 191.892548,121.022621 
	C139.386475,99.833817 86.938866,100.288986 34.065250,120.619797 
	C32.188522,115.975327 30.479776,111.746567 28.558702,106.992340 
	C51.946468,95.122322 76.488655,89.082855 103.069687,87.316483 
	C109.948006,87.161369 115.983376,87.115616 122.018745,87.069870 
z"/>
<path fill="#FDFBFB" opacity="1.000000" stroke="none" 
	d="
M44.745125,141.238770 
	C43.598606,139.196548 42.651592,137.466537 41.378906,135.141602 
	C89.230858,116.576714 136.477875,116.843933 184.510818,135.491241 
	C181.849258,139.795258 179.647110,143.656052 177.091812,147.266907 
	C176.491745,148.114853 174.584244,148.660446 173.471924,148.426041 
	C163.025894,146.224701 152.684891,143.465271 142.181274,141.620148 
	C136.272949,140.582275 130.111328,141.035843 124.074364,140.651749 
	C122.191063,140.531921 120.326477,139.461075 118.480591,139.532288 
	C112.771225,139.752533 107.080009,140.404861 101.372322,140.717178 
	C95.154762,141.057419 88.813225,140.541245 82.727943,141.581421 
	C71.750610,143.457840 60.923843,146.215073 49.502937,148.721008 
	C48.107262,146.525665 46.525944,144.038330 44.745125,141.238770 
z"/>
<path fill="#FDFBFB" opacity="1.000000" stroke="none" 
	d="
M102.975792,173.903259 
	C97.995804,174.222397 92.979904,174.275314 88.046631,174.940735 
	C83.715790,175.524918 79.491501,176.866989 75.187668,177.708099 
	C74.227272,177.895782 72.723404,177.759293 72.162880,177.142349 
	C68.175385,172.753342 64.367920,168.200760 59.889027,162.985123 
	C95.351257,152.891785 129.953903,153.202591 165.721176,162.991913 
	C161.373642,167.755325 157.812729,172.044189 153.775940,175.824921 
	C152.678864,176.852417 150.109314,176.685013 148.279572,176.483887 
	C142.178040,175.813232 136.115494,174.790039 130.015518,174.101318 
	C128.302490,173.907913 126.512093,174.399948 124.072449,174.615143 
	C116.583748,174.402878 109.779770,174.153061 102.975792,173.903259 
z"/>
<path fill="#FCF9F9" opacity="1.000000" stroke="none" 
	d="
M103.037231,201.967468 
	C98.218208,198.540680 93.716103,195.288345 89.214005,192.035995 
	C89.362778,191.500946 89.511559,190.965897 89.660339,190.430847 
	C104.761955,190.430847 119.863579,190.430847 134.965195,190.430847 
	C135.133560,190.873734 135.301941,191.316620 135.470306,191.759506 
	C133.669571,193.184891 131.930267,194.697708 130.054260,196.015976 
	C126.937988,198.205750 123.471657,199.969299 120.621254,202.450546 
	C114.625847,207.669434 109.015732,207.537262 103.037231,201.967468 
z"/>
<path fill="#AE3A4B" opacity="1.000000" stroke="none" 
	d="
M103.322296,174.126251 
	C109.779770,174.153061 116.583748,174.402878 123.712227,174.817108 
	C117.247421,174.770752 110.458107,174.560013 103.322296,174.126251 
z"/>
<path fill="#9E0013" opacity="1.000000" stroke="none" 
	d="
M121.700577,86.799286 
	C115.983376,87.115616 109.948006,87.161369 103.448074,87.134903 
	C109.116478,86.884705 115.249443,86.706711 121.700577,86.799286 
z"/>
<path fill="#9E0013" opacity="1.000000" stroke="none" 
	d="
M126.480217,86.494942 
	C126.468170,86.470116 126.492264,86.519768 126.480217,86.494942 
z"/>
</svg>